<svg width="19" height="18" viewBox="0 0 19 18" fill="none" xmlns="http://www.w3.org/2000/svg">
<rect x="1.82422" y="1.5" width="15" height="15" rx="7.5" fill="white"/>
<path fill-rule="evenodd" clip-rule="evenodd" d="M13.1133 8.28467L13.6987 5.4412L12.5968 5.21436L11.9647 8.28467H10.7087L9.84438 5.86483L8.78508 5.8644L7.91843 8.28467H6.69763L6.09501 5.21927L4.99114 5.43628L5.5511 8.28467H4.33154V9.40967H5.77226L6.42005 12.7048L7.50156 12.786L8.71054 9.40967H9.91587L11.1216 12.7855L12.2023 12.7098L12.8817 9.40967H14.3168V8.28467H13.1133ZM11.7331 9.40967H11.1105L11.5054 10.5155L11.7331 9.40967ZM9.51406 8.28467L9.31397 7.72447L9.11338 8.28467H9.51406ZM7.51559 9.40967H6.91879L7.13031 10.4856L7.51559 9.40967Z" fill="#1D1D1F"/>
</svg>
