<svg width="18" height="18" viewBox="0 0 18 18" fill="none" xmlns="http://www.w3.org/2000/svg">
<path d="M14.2775 4.17047C13.0397 2.93268 11.3609 2.2373 9.61041 2.2373V8.83754L16.2107 8.83754C16.2107 7.08705 15.5153 5.40825 14.2775 4.17047Z" fill="white"/>
<path d="M14.0806 13.5245C14.8058 12.4391 15.1929 11.1631 15.1929 9.85765H8.59267L8.59267 3.25741C7.28727 3.25741 6.01118 3.6445 4.92578 4.36975C3.84037 5.09499 2.9944 6.12581 2.49485 7.33184C1.99529 8.53788 1.86458 9.86497 2.11926 11.1453C2.37393 12.4256 3.00254 13.6017 3.9256 14.5247C4.84866 15.4478 6.02471 16.0764 7.30503 16.3311C8.58535 16.5857 9.91244 16.455 11.1185 15.9555C12.3245 15.4559 13.3553 14.6099 14.0806 13.5245Z" fill="white"/>
</svg>
