<svg width="91" height="90" viewBox="0 0 91 90" fill="none" xmlns="http://www.w3.org/2000/svg">
<rect x="0.402344" width="90" height="90" rx="15.1145" fill="#1D1D1F"/>
<g clip-path="url(#clip0_143_5914)">
<path d="M69.1004 68.9609C69.1004 71.3793 67.141 73.34 64.7239 73.34C62.3067 73.34 60.3477 71.3793 60.3477 68.9609C60.3477 66.5426 62.3071 64.5815 64.7239 64.5815C67.1407 64.5815 69.1004 66.5422 69.1004 68.9609Z" fill="white"/>
<path d="M58.0641 32.2169C58.2634 35.9455 57.6026 39.5849 56.0999 43.0341C54.8564 45.8875 53.0001 48.6767 50.5826 51.324C48.9667 53.0934 46.2238 53.217 44.4555 51.6001C42.6873 49.9835 42.5638 47.2384 44.1793 45.4691C45.952 43.528 47.2876 41.5415 48.1488 39.5653C49.1094 37.3604 49.5213 35.1352 49.4071 32.7657C49.1804 30.4731 48.3311 28.5783 46.9485 27.2822C45.5926 26.0108 43.7367 25.3389 41.5821 25.3389C40.0261 25.3389 38.6845 25.643 37.5952 26.2428C36.7007 26.7349 35.9505 27.425 35.3012 28.3526C33.8506 30.4243 33.4579 32.9059 33.3669 33.6866C33.1613 36.041 33.4235 38.5218 34.1464 41.0616C34.9026 43.7178 36.1235 46.2983 37.776 48.7303C39.5187 51.2948 41.6738 53.5911 44.1815 55.5543C46.8716 57.6604 49.9151 59.338 53.2283 60.5405C55.4798 61.3582 56.6427 63.8473 55.8259 66.1002C55.1862 67.8648 53.5219 68.9611 51.7488 68.9611C51.2578 68.9611 50.7582 68.8768 50.2698 68.6995C46.4867 67.3261 42.9727 65.4538 39.8075 63.1265C39.1915 63.5668 38.5045 64.0252 37.7697 64.4855C35.9142 65.6481 32.1197 67.8326 27.5564 69.3992C27.0812 69.5624 26.5976 69.6401 26.122 69.6401C24.2865 69.6401 22.5719 68.4868 21.9426 66.6523C21.1505 64.3427 22.3796 61.8278 24.6881 61.0352C28.0881 59.8675 31.1043 58.2306 33.1469 56.9444C32.2373 55.8785 31.3883 54.7658 30.6029 53.6099C28.429 50.4101 26.8146 46.9883 25.804 43.4392C24.7835 39.8531 24.423 36.2937 24.7325 32.8596C24.735 32.8289 24.738 32.7986 24.7417 32.7682C24.9192 31.1735 25.6118 27.0653 28.1972 23.3723C29.6053 21.3613 31.3605 19.7685 33.415 18.6377C35.7996 17.3253 38.5477 16.6597 41.5821 16.6597C43.7489 16.6597 45.8181 17.0267 47.732 17.7504C49.6626 18.4805 51.3942 19.5564 52.8788 20.9484C54.3579 22.3348 55.5541 24.0002 56.4345 25.898C57.3046 27.7739 57.8489 29.8441 58.0519 32.0508C58.0571 32.1059 58.0611 32.1614 58.0641 32.2169Z" fill="white"/>
</g>
<defs>
<clipPath id="clip0_143_5914">
<rect width="47.3987" height="56.6805" fill="white" transform="translate(21.7031 16.6597)"/>
</clipPath>
</defs>
</svg>
